<svg width="20" height="20" viewBox="0 0 20 20" xmlns="http://www.w3.org/2000/svg"><path fill-rule="evenodd" clip-rule="evenodd" d="M17.0832 11.1667C17.7498 10.5 17.7498 9.41666 17.0832 8.83332L12.3332 4.08332L11.1665 2.91666C10.4998 2.24999 9.4165 2.24999 8.83317 2.91666L2.9165 8.83332C2.24984 9.49999 2.24984 10.5833 2.9165 11.1667L8.83317 17.0833C9.49984 17.75 10.5832 17.75 11.1665 17.0833L17.0832 11.1667ZM9.99984 15.9167L4.08317 9.99999L9.99984 4.08332L15.9165 9.99999L9.99984 15.9167ZM9.99984 7.66666L12.3332 9.99999L9.99984 12.3333L7.6665 9.99999L9.99984 7.66666Z"/><mask id="playPointsIcon-mask0" mask-type="alpha" maskUnits="userSpaceOnUse" x="2" y="2" width="16" height="16"><path fill-rule="evenodd" clip-rule="evenodd" d="M17.0832 11.1667C17.7498 10.5 17.7498 9.41666 17.0832 8.83332L12.3332 4.08332L11.1665 2.91666C10.4998 2.24999 9.4165 2.24999 8.83317 2.91666L2.9165 8.83332C2.24984 9.49999 2.24984 10.5833 2.9165 11.1667L8.83317 17.0833C9.49984 17.75 10.5832 17.75 11.1665 17.0833L17.0832 11.1667ZM9.99984 15.9167L4.08317 9.99999L9.99984 4.08332L15.9165 9.99999L9.99984 15.9167ZM9.99984 7.66666L12.3332 9.99999L9.99984 12.3333L7.6665 9.99999L9.99984 7.66666Z"/></mask><g mask="url(#playPointsIcon-mask0)"><rect width="20" height="20"/></g></svg>