<svg width="24" height="24" viewBox="0 0 24 24" fill="none" xmlns="http://www.w3.org/2000/svg"><path fill-rule="evenodd" clip-rule="evenodd" d="M9 4H6C4.89543 4 4 4.89543 4 6V9C4 10.1046 4.89543 11 6 11H9C10.1046 11 11 10.1046 11 9V6C11 4.89543 10.1046 4 9 4ZM6 9V6H9V9H6ZM15 6V9H18V6H15ZM18 4H15C13.8954 4 13 4.89543 13 6V9C13 10.1046 13.8954 11 15 11H18C19.1046 11 20 10.1046 20 9V6C20 4.89543 19.1046 4 18 4ZM15 15V18H18V15H15ZM18 13H15C13.8954 13 13 13.8954 13 15V18C13 19.1046 13.8954 20 15 20H18C19.1046 20 20 19.1046 20 18V15C20 13.8954 19.1046 13 18 13ZM6 15V18H9V15H6ZM9 13H6C4.89543 13 4 13.8954 4 15V18C4 19.1046 4.89543 20 6 20H9C10.1046 20 11 19.1046 11 18V15C11 13.8954 10.1046 13 9 13Z" fill="#5F6368"/></svg>