<svg width="24" height="24" viewBox="0 0 21 16" fill="none" xmlns="http://www.w3.org/2000/svg" class="JtbJpb"><path fill-rule="evenodd" clip-rule="evenodd" d="M18.9009 6.09902C19.0648 6.90427 19.2169 7.65213 19.3 8.4L19.3946 8.95177C19.911 11.9651 20.0055 12.5165 20.1 12.8C20.1 14.4 18.8 15.6 17.3 15.6C16.5 15.6 15.8 15.3 15.3 14.8L12.4 11.9H7.7L4.8 14.7C4.3 15.2 3.6 15.5 2.8 15.5C1.2 15.5 0 14.2 0 12.7C0 12.5 0.1 11.9 0.7 8.4C0.8 7.95 0.875 7.475 0.95 7C1.025 6.525 1.1 6.05 1.2 5.6C1.3 5.1 1.3 5.1 1.3 4.7C1.36826 4.56347 1.38993 4.52014 1.3968 4.47458C1.4 4.4534 1.4 4.43174 1.4 4.4C1.8 1.8 4.1 0 6.7 0H13.3C16 0 18.2 1.8 18.5 4.4L18.6 4.7C18.7 5.09996 18.7 5.1 18.8 5.59986L18.8 5.6C18.8338 5.76904 18.8676 5.93522 18.9009 6.09902ZM7.6 6.6H9.5V5.4H7.6V3.5H6.4V5.4H4.5V6.6H6.4V8.5H7.6V6.6ZM11.8 6.6C11.5 6.9 10.9 6.9 10.6 6.6C10.3 6.3 10.3 5.7 10.6 5.4C10.9 5.1 11.5 5.1 11.8 5.4C12.1 5.7 12.1 6.3 11.8 6.6ZM12.1 7.8C12.1 8.3 12.5 8.7 13 8.7C13.5 8.7 13.9 8.3 13.9 7.9C13.9 7.4 13.5 7 13 7C12.5 7 12.1 7.3 12.1 7.8ZM13 5C12.5 5 12.1 4.6 12.1 4.1C12.1 3.6 12.5 3.2 13 3.2C13.5 3.2 13.9 3.6 13.9 4.1C13.9 4.6 13.5 5 13 5ZM14 6C14 6.5 14.4 6.9 14.9 6.9C15.4 6.9 15.8 6.5 15.8 6C15.8 5.5 15.4 5.1 14.9 5.1C14.4 5.1 14 5.5 14 6Z"/></svg>